<svg width="108" height="44" viewBox="0 0 108 44" fill="none" xmlns="http://www.w3.org/2000/svg">
<path d="M1 4.25853C10.517 13.9709 15.1115 11.6265 21.0186 5.93317C29.8793 -1.76983 32.5739 1.8244 38.4118 5.93317C46.4448 13.6617 47.2653 12.3624 55.805 5.93317C64.3446 -0.496038 67.1157 1.32978 71.5573 5.93317C79.4176 14.6239 83.1646 13.3974 89.2786 5.93317C98.534 -2.03155 101.553 0.904641 107 5.93317" stroke="white" stroke-width="2"/>
<path d="M1 35.2585C10.517 44.9709 15.1115 42.6265 21.0186 36.9332C29.8793 29.2302 32.5739 32.8244 38.4118 36.9332C46.4448 44.6617 47.2653 43.3624 55.805 36.9332C64.3446 30.504 67.1157 32.3298 71.5573 36.9332C79.4176 45.6239 83.1646 44.3974 89.2786 36.9332C98.534 28.9685 101.553 31.9046 107 36.9332" stroke="white" stroke-width="2"/>
<path d="M1 19.9623C10.517 28.7917 15.1115 26.6605 21.0186 21.4847C29.8793 14.482 32.5739 17.7495 38.4118 21.4847C46.4448 28.5106 47.2653 27.3294 55.805 21.4847C64.3446 15.64 67.1157 17.2998 71.5573 21.4847C79.4176 29.3854 83.1646 28.2704 89.2786 21.4847C98.534 14.244 101.553 16.9133 107 21.4847" stroke="white" stroke-width="2"/>
</svg>
