<svg width="75" height="70" viewBox="0 0 75 70" fill="none" xmlns="http://www.w3.org/2000/svg">
<ellipse cx="30.5" cy="67.0833" rx="2.5" ry="2.08333" fill="#D7D995"/>
<ellipse cx="58.5" cy="67.0833" rx="2.5" ry="2.08333" fill="#D7D995"/>
<ellipse cx="72.5" cy="67.0833" rx="2.5" ry="2.08333" fill="#D7D995"/>
<ellipse cx="16.5" cy="67.0833" rx="2.5" ry="2.08333" fill="#D7D995"/>
<ellipse cx="2.5" cy="67.0833" rx="2.5" ry="2.08333" fill="#D7D995"/>
<ellipse cx="44.5" cy="67.0833" rx="2.5" ry="2.08333" fill="#D7D995"/>
<ellipse cx="30.5" cy="41.0833" rx="2.5" ry="2.08333" fill="#D7D995"/>
<ellipse cx="58.5" cy="41.0833" rx="2.5" ry="2.08333" fill="#D7D995"/>
<ellipse cx="72.5" cy="41.0833" rx="2.5" ry="2.08333" fill="#D7D995"/>
<ellipse cx="16.5" cy="41.0833" rx="2.5" ry="2.08333" fill="#D7D995"/>
<ellipse cx="2.5" cy="41.0833" rx="2.5" ry="2.08333" fill="#D7D995"/>
<ellipse cx="44.5" cy="41.0833" rx="2.5" ry="2.08333" fill="#D7D995"/>
<ellipse cx="30.5" cy="54.0833" rx="2.5" ry="2.08333" fill="#D7D995"/>
<ellipse cx="58.5" cy="54.0833" rx="2.5" ry="2.08333" fill="#D7D995"/>
<ellipse cx="72.5" cy="54.0833" rx="2.5" ry="2.08333" fill="#D7D995"/>
<ellipse cx="16.5" cy="54.0833" rx="2.5" ry="2.08333" fill="#D7D995"/>
<ellipse cx="2.5" cy="54.0833" rx="2.5" ry="2.08333" fill="#D7D995"/>
<ellipse cx="44.5" cy="54.0833" rx="2.5" ry="2.08333" fill="#D7D995"/>
<ellipse cx="30.5" cy="15.0833" rx="2.5" ry="2.08333" fill="#D7D995"/>
<ellipse cx="58.5" cy="15.0833" rx="2.5" ry="2.08333" fill="#D7D995"/>
<ellipse cx="72.5" cy="15.0833" rx="2.5" ry="2.08333" fill="#D7D995"/>
<ellipse cx="16.5" cy="15.0833" rx="2.5" ry="2.08333" fill="#D7D995"/>
<ellipse cx="2.5" cy="15.0833" rx="2.5" ry="2.08333" fill="#D7D995"/>
<ellipse cx="44.5" cy="15.0833" rx="2.5" ry="2.08333" fill="#D7D995"/>
<ellipse cx="30.5" cy="2.08333" rx="2.5" ry="2.08333" fill="#D7D995"/>
<ellipse cx="58.5" cy="2.08333" rx="2.5" ry="2.08333" fill="#D7D995"/>
<ellipse cx="72.5" cy="2.08333" rx="2.5" ry="2.08333" fill="#D7D995"/>
<ellipse cx="16.5" cy="2.08333" rx="2.5" ry="2.08333" fill="#D7D995"/>
<ellipse cx="2.5" cy="2.08333" rx="2.5" ry="2.08333" fill="#D7D995"/>
<ellipse cx="44.5" cy="2.08333" rx="2.5" ry="2.08333" fill="#D7D995"/>
<ellipse cx="30.5" cy="28.0833" rx="2.5" ry="2.08333" fill="#D7D995"/>
<ellipse cx="58.5" cy="28.0833" rx="2.5" ry="2.08333" fill="#D7D995"/>
<ellipse cx="72.5" cy="28.0833" rx="2.5" ry="2.08333" fill="#D7D995"/>
<ellipse cx="16.5" cy="28.0833" rx="2.5" ry="2.08333" fill="#D7D995"/>
<ellipse cx="2.5" cy="28.0833" rx="2.5" ry="2.08333" fill="#D7D995"/>
<ellipse cx="44.5" cy="28.0833" rx="2.5" ry="2.08333" fill="#D7D995"/>
</svg>
