<svg width="16" height="16" viewBox="0 0 16 16" fill="none" xmlns="http://www.w3.org/2000/svg">
<path fill-rule="evenodd" clip-rule="evenodd" d="M12.5969 4.26767L10.6109 0.29639C10.5451 0.164617 10.4422 0.075458 10.3026 0.0289161C10.1628 -0.0176259 10.0271 -0.00798413 9.89546 0.0578419C9.83213 0.0895068 9.77737 0.132002 9.73106 0.185449C9.68463 0.238896 9.65035 0.29913 9.62796 0.366147C9.60558 0.433283 9.59689 0.502085 9.60189 0.572674C9.60689 0.643143 9.62522 0.710041 9.65689 0.773368L11.4043 4.26775H4.59679L6.34418 0.773368C6.41001 0.641595 6.41966 0.505894 6.37311 0.366153C6.32656 0.226524 6.23739 0.123677 6.10561 0.0578541C6.04239 0.0261893 5.97549 0.00785962 5.90501 0.00285894C5.83442 -0.00214051 5.76561 0.00654892 5.69847 0.0289279C5.63144 0.0513066 5.5712 0.0855901 5.51775 0.132013C5.4643 0.178317 5.4218 0.233075 5.39013 0.296283L3.40417 4.26787H1.60001C0.533702 4.26787 0.000488281 4.80103 0.000488281 5.86724C0.000488281 6.30898 0.156679 6.68679 0.46894 6.99914C0.781322 7.31137 1.15822 7.46755 1.60001 7.46755H14.401C14.8428 7.46755 15.2197 7.31137 15.532 6.99914C15.8443 6.68679 16.0005 6.30993 16.0005 5.86819C16.0005 4.80199 15.4673 4.26787 14.401 4.26787L12.5969 4.26767ZM1.59981 8.53394C1.24921 8.53394 0.939331 8.40264 0.670164 8.14017L1.30873 13.6415C1.49124 15.2139 2.37409 16 3.95706 16H12.0436C13.6266 16 14.5095 15.2139 14.692 13.6415L15.3305 8.14017C15.0614 8.40264 14.7515 8.53394 14.4008 8.53394H1.59981ZM5.33377 10.1338V14.4001C5.33377 14.5473 5.28175 14.673 5.17758 14.7772C5.07341 14.8813 4.9477 14.9333 4.80043 14.9333C4.65317 14.9333 4.52746 14.8813 4.42329 14.7772C4.31912 14.673 4.2671 14.5473 4.2671 14.4001V10.1338C4.2671 9.98654 4.31912 9.86084 4.42329 9.75668C4.52746 9.65253 4.65317 9.60051 4.80043 9.60051C4.9477 9.60051 5.07341 9.65253 5.17758 9.75668C5.28175 9.86084 5.33377 9.98654 5.33377 10.1338ZM8.37759 9.75668C8.48176 9.86084 8.53378 9.98654 8.53378 10.1338V14.4001C8.53378 14.5473 8.48176 14.673 8.37759 14.7772C8.27342 14.8813 8.14771 14.9333 8.00045 14.9333C7.85318 14.9333 7.72747 14.8813 7.6233 14.7772C7.51913 14.673 7.46711 14.5473 7.46711 14.4001V10.1338C7.46711 9.98654 7.51913 9.86084 7.6233 9.75668C7.72747 9.65253 7.85318 9.60051 8.00045 9.60051C8.14771 9.60051 8.27342 9.65253 8.37759 9.75668ZM11.7336 10.1338V14.4001C11.7336 14.5473 11.6816 14.673 11.5774 14.7772C11.4733 14.8813 11.3476 14.9333 11.2003 14.9333C11.053 14.9333 10.9273 14.8813 10.8232 14.7772C10.719 14.673 10.667 14.5473 10.667 14.4001V10.1338C10.667 9.98654 10.719 9.86084 10.8232 9.75668C10.9273 9.65253 11.053 9.60051 11.2003 9.60051C11.3476 9.60051 11.4733 9.65253 11.5774 9.75668C11.6816 9.86084 11.7336 9.98654 11.7336 10.1338Z" fill="white"/>
</svg>
