<svg width="139" height="82" viewBox="0 0 139 82" fill="none" xmlns="http://www.w3.org/2000/svg">
<ellipse cx="2.38635" cy="2.74987" rx="2.38635" ry="2.74987" transform="matrix(0.0221198 -0.999755 0.999861 0.0166562 0 35)" fill="#D3D3D3"/>
<ellipse cx="2.38635" cy="2.74987" rx="2.38635" ry="2.74987" transform="matrix(0.0221198 -0.999755 0.999861 0.0166562 17 35)" fill="#D3D3D3"/>
<ellipse cx="2.38635" cy="2.74987" rx="2.38635" ry="2.74987" transform="matrix(0.0221198 -0.999755 0.999861 0.0166562 17 50)" fill="#D3D3D3"/>
<ellipse cx="2.38635" cy="2.74987" rx="2.38635" ry="2.74987" transform="matrix(0.0221198 -0.999755 0.999861 0.0166562 34 35)" fill="#D3D3D3"/>
<ellipse cx="2.38635" cy="2.74987" rx="2.38635" ry="2.74987" transform="matrix(0.0221198 -0.999755 0.999861 0.0166562 34 50)" fill="#D3D3D3"/>
<ellipse cx="2.38635" cy="2.74987" rx="2.38635" ry="2.74987" transform="matrix(0.0221198 -0.999755 0.999861 0.0166562 0 50)" fill="#D3D3D3"/>
<ellipse cx="2.38635" cy="2.74987" rx="2.38635" ry="2.74987" transform="matrix(0.0221198 -0.999755 0.999861 0.0166562 99 36)" fill="#D3D3D3"/>
<ellipse cx="2.38635" cy="2.74987" rx="2.38635" ry="2.74987" transform="matrix(0.0221198 -0.999755 0.999861 0.0166562 117 35)" fill="#D3D3D3"/>
<ellipse cx="2.38635" cy="2.74987" rx="2.38635" ry="2.74987" transform="matrix(0.0221198 -0.999755 0.999861 0.0166562 117 50)" fill="#D3D3D3"/>
<ellipse cx="2.38635" cy="2.74987" rx="2.38635" ry="2.74987" transform="matrix(0.0221198 -0.999755 0.999861 0.0166562 133 35)" fill="#D3D3D3"/>
<ellipse cx="2.38635" cy="2.74987" rx="2.38635" ry="2.74987" transform="matrix(0.0221198 -0.999755 0.999861 0.0166562 133 50)" fill="#D3D3D3"/>
<ellipse cx="2.38635" cy="2.74987" rx="2.38635" ry="2.74987" transform="matrix(0.0221198 -0.999755 0.999861 0.0166562 99 51)" fill="#D3D3D3"/>
<ellipse cx="2.38635" cy="2.74987" rx="2.38635" ry="2.74987" transform="matrix(0.0221198 -0.999755 0.999861 0.0166562 99 4.99997)" fill="#D3D3D3"/>
<ellipse cx="2.38635" cy="2.74987" rx="2.38635" ry="2.74987" transform="matrix(0.0221198 -0.999755 0.999861 0.0166562 117 4.99997)" fill="#D3D3D3"/>
<ellipse cx="2.38635" cy="2.74987" rx="2.38635" ry="2.74987" transform="matrix(0.0221198 -0.999755 0.999861 0.0166562 117 20)" fill="#D3D3D3"/>
<ellipse cx="2.38635" cy="2.74987" rx="2.38635" ry="2.74987" transform="matrix(0.0221198 -0.999755 0.999861 0.0166562 133 4.99997)" fill="#D3D3D3"/>
<ellipse cx="2.38635" cy="2.74987" rx="2.38635" ry="2.74987" transform="matrix(0.0221198 -0.999755 0.999861 0.0166562 133 20)" fill="#D3D3D3"/>
<ellipse cx="2.38635" cy="2.74987" rx="2.38635" ry="2.74987" transform="matrix(0.0221198 -0.999755 0.999861 0.0166562 99 21)" fill="#D3D3D3"/>
<ellipse cx="2.38635" cy="2.74987" rx="2.38635" ry="2.74987" transform="matrix(0.0221198 -0.999755 0.999861 0.0166562 99 66)" fill="#D3D3D3"/>
<ellipse cx="2.38635" cy="2.74987" rx="2.38635" ry="2.74987" transform="matrix(0.0221198 -0.999755 0.999861 0.0166562 117 65)" fill="#D3D3D3"/>
<ellipse cx="2.38635" cy="2.74987" rx="2.38635" ry="2.74987" transform="matrix(0.0221198 -0.999755 0.999861 0.0166562 117 80)" fill="#D3D3D3"/>
<ellipse cx="2.38635" cy="2.74987" rx="2.38635" ry="2.74987" transform="matrix(0.0221198 -0.999755 0.999861 0.0166562 133 65)" fill="#D3D3D3"/>
<ellipse cx="2.38635" cy="2.74987" rx="2.38635" ry="2.74987" transform="matrix(0.0221198 -0.999755 0.999861 0.0166562 133 80)" fill="#D3D3D3"/>
<ellipse cx="2.38635" cy="2.74987" rx="2.38635" ry="2.74987" transform="matrix(0.0221198 -0.999755 0.999861 0.0166562 99 81)" fill="#D3D3D3"/>
<ellipse cx="2.38635" cy="2.74987" rx="2.38635" ry="2.74987" transform="matrix(0.0221198 -0.999755 0.999861 0.0166562 50 4.99997)" fill="#D3D3D3"/>
<ellipse cx="2.38635" cy="2.74987" rx="2.38635" ry="2.74987" transform="matrix(0.0221198 -0.999755 0.999861 0.0166562 67 4.99997)" fill="#D3D3D3"/>
<ellipse cx="2.38635" cy="2.74987" rx="2.38635" ry="2.74987" transform="matrix(0.0221198 -0.999755 0.999861 0.0166562 67 20)" fill="#D3D3D3"/>
<ellipse cx="2.38635" cy="2.74987" rx="2.38635" ry="2.74987" transform="matrix(0.0221198 -0.999755 0.999861 0.0166562 84 4.99997)" fill="#D3D3D3"/>
<ellipse cx="2.38635" cy="2.74987" rx="2.38635" ry="2.74987" transform="matrix(0.0221198 -0.999755 0.999861 0.0166562 84 20)" fill="#D3D3D3"/>
<ellipse cx="2.38635" cy="2.74987" rx="2.38635" ry="2.74987" transform="matrix(0.0221198 -0.999755 0.999861 0.0166562 50 20)" fill="#D3D3D3"/>
<ellipse cx="2.38635" cy="2.74987" rx="2.38635" ry="2.74987" transform="matrix(0.0221198 -0.999755 0.999861 0.0166562 0 4.99997)" fill="#D3D3D3"/>
<ellipse cx="2.38635" cy="2.74987" rx="2.38635" ry="2.74987" transform="matrix(0.0221198 -0.999755 0.999861 0.0166562 17 4.99997)" fill="#D3D3D3"/>
<ellipse cx="2.38635" cy="2.74987" rx="2.38635" ry="2.74987" transform="matrix(0.0221198 -0.999755 0.999861 0.0166562 17 20)" fill="#D3D3D3"/>
<ellipse cx="2.38635" cy="2.74987" rx="2.38635" ry="2.74987" transform="matrix(0.0221198 -0.999755 0.999861 0.0166562 34 4.99997)" fill="#D3D3D3"/>
<ellipse cx="2.38635" cy="2.74987" rx="2.38635" ry="2.74987" transform="matrix(0.0221198 -0.999755 0.999861 0.0166562 34 20)" fill="#D3D3D3"/>
<ellipse cx="2.38635" cy="2.74987" rx="2.38635" ry="2.74987" transform="matrix(0.0221198 -0.999755 0.999861 0.0166562 0 20)" fill="#D3D3D3"/>
<ellipse cx="2.38635" cy="2.74987" rx="2.38635" ry="2.74987" transform="matrix(0.0221198 -0.999755 0.999861 0.0166562 50 65)" fill="#D3D3D3"/>
<ellipse cx="2.38635" cy="2.74987" rx="2.38635" ry="2.74987" transform="matrix(0.0221198 -0.999755 0.999861 0.0166562 67 65)" fill="#D3D3D3"/>
<ellipse cx="2.38635" cy="2.74987" rx="2.38635" ry="2.74987" transform="matrix(0.0221198 -0.999755 0.999861 0.0166562 67 80)" fill="#D3D3D3"/>
<ellipse cx="2.38635" cy="2.74987" rx="2.38635" ry="2.74987" transform="matrix(0.0221198 -0.999755 0.999861 0.0166562 84 65)" fill="#D3D3D3"/>
<ellipse cx="2.38635" cy="2.74987" rx="2.38635" ry="2.74987" transform="matrix(0.0221198 -0.999755 0.999861 0.0166562 84 80)" fill="#D3D3D3"/>
<ellipse cx="2.38635" cy="2.74987" rx="2.38635" ry="2.74987" transform="matrix(0.0221198 -0.999755 0.999861 0.0166562 50 80)" fill="#D3D3D3"/>
<ellipse cx="2.38635" cy="2.74987" rx="2.38635" ry="2.74987" transform="matrix(0.0221198 -0.999755 0.999861 0.0166562 50 35)" fill="#D3D3D3"/>
<ellipse cx="2.38635" cy="2.74987" rx="2.38635" ry="2.74987" transform="matrix(0.0221198 -0.999755 0.999861 0.0166562 67 35)" fill="#D3D3D3"/>
<ellipse cx="2.38635" cy="2.74987" rx="2.38635" ry="2.74987" transform="matrix(0.0221198 -0.999755 0.999861 0.0166562 67 50)" fill="#D3D3D3"/>
<ellipse cx="2.38635" cy="2.74987" rx="2.38635" ry="2.74987" transform="matrix(0.0221198 -0.999755 0.999861 0.0166562 84 35)" fill="#D3D3D3"/>
<ellipse cx="2.38635" cy="2.74987" rx="2.38635" ry="2.74987" transform="matrix(0.0221198 -0.999755 0.999861 0.0166562 84 50)" fill="#D3D3D3"/>
<ellipse cx="2.38635" cy="2.74987" rx="2.38635" ry="2.74987" transform="matrix(0.0221198 -0.999755 0.999861 0.0166562 50 50)" fill="#D3D3D3"/>
<ellipse cx="2.38635" cy="2.74987" rx="2.38635" ry="2.74987" transform="matrix(0.0221198 -0.999755 0.999861 0.0166562 0 65)" fill="#D3D3D3"/>
<ellipse cx="2.38635" cy="2.74987" rx="2.38635" ry="2.74987" transform="matrix(0.0221198 -0.999755 0.999861 0.0166562 17 65)" fill="#D3D3D3"/>
<ellipse cx="2.38635" cy="2.74987" rx="2.38635" ry="2.74987" transform="matrix(0.0221198 -0.999755 0.999861 0.0166562 17 80)" fill="#D3D3D3"/>
<ellipse cx="2.38635" cy="2.74987" rx="2.38635" ry="2.74987" transform="matrix(0.0221198 -0.999755 0.999861 0.0166562 34 65)" fill="#D3D3D3"/>
<ellipse cx="2.38635" cy="2.74987" rx="2.38635" ry="2.74987" transform="matrix(0.0221198 -0.999755 0.999861 0.0166562 34 80)" fill="#D3D3D3"/>
<ellipse cx="2.38635" cy="2.74987" rx="2.38635" ry="2.74987" transform="matrix(0.0221198 -0.999755 0.999861 0.0166562 0 80)" fill="#D3D3D3"/>
</svg>
