<svg width="111" height="15" viewBox="0 0 111 15" fill="none" xmlns="http://www.w3.org/2000/svg">
<path d="M35.9095 1.23608C33.8845 1.23608 32.2368 2.88624 32.2368 4.91361V10.1659C32.2368 12.193 33.8855 13.8425 35.911 13.8425H41.1585C43.1838 13.8425 44.8317 12.1923 44.8317 10.165V4.91213C44.8317 2.88527 43.1831 1.23608 41.1575 1.23608H35.9095ZM42.3127 3.25311C42.5908 3.25311 42.8165 3.47901 42.8165 3.75736C42.8165 4.03571 42.5908 4.26162 42.3127 4.26162C42.0346 4.26162 41.8089 4.03571 41.8089 3.75736C41.8089 3.47901 42.0346 3.25311 42.3127 3.25311ZM38.5343 4.26162C40.3404 4.26162 41.8089 5.73152 41.8089 7.53928C41.8089 9.34704 40.3401 10.8169 38.5343 10.8169C36.7282 10.8169 35.2596 9.34678 35.2596 7.53928C35.2596 5.73178 36.7282 4.26162 38.5343 4.26162ZM38.5343 5.27013C37.2821 5.27013 36.2672 6.28595 36.2672 7.53928C36.2672 8.79261 37.2821 9.80843 38.5343 9.80843C39.7865 9.80843 40.8013 8.79261 40.8013 7.53928C40.8013 6.28595 39.7865 5.27013 38.5343 5.27013Z" fill="#A5A5A5"/>
<path d="M7.26629 0C3.25362 0 0 3.2734 0 7.31046C0 10.9755 2.68378 14.0021 6.17998 14.5307V9.24773H4.38213V7.3262H6.17998V6.04743C6.17998 3.93049 7.20508 3.0015 8.95402 3.0015C9.79132 3.0015 10.2348 3.06421 10.4442 3.09232V4.76951H9.25138C8.5091 4.76951 8.24975 5.47806 8.24975 6.27603V7.3262H10.4254L10.1306 9.24773H8.24975V14.5458C11.7963 14.0622 14.5326 11.0115 14.5326 7.31046C14.5326 3.2734 11.2792 0 7.26629 0Z" fill="#A5A5A5"/>
<path d="M78.3276 1.60805C77.7369 1.88301 77.1016 2.06631 76.4315 2.15294C77.1129 1.72809 77.6369 1.05045 77.8829 0.249826C77.2455 0.642453 76.5393 0.930714 75.7878 1.08268C75.1878 0.414505 74.3319 0 73.3837 0C71.5621 0 70.0859 1.53739 70.0859 3.43282C70.0859 3.70098 70.1158 3.96233 70.1721 4.216C67.4319 4.07143 65.0015 2.70315 63.3756 0.626488C63.0899 1.13383 62.9292 1.72809 62.9292 2.35517C62.9292 3.54694 63.5101 4.59592 64.3959 5.21413C63.8552 5.19668 63.3463 5.0388 62.9008 4.78543C62.9008 4.79578 62.9008 4.81115 62.9008 4.82564C62.9008 6.49105 64.0379 7.87766 65.545 8.19341C65.2695 8.27265 64.9785 8.3167 64.6784 8.3167C64.4654 8.3167 64.258 8.29128 64.057 8.25343C64.4766 9.61432 65.6942 10.6092 67.1366 10.6385C66.008 11.5576 64.5867 12.1081 63.041 12.1081C62.7739 12.1081 62.513 12.0922 62.2549 12.0594C63.7148 13.0306 65.4488 13.6 67.31 13.6C73.375 13.6 76.6927 8.36814 76.6927 3.82959C76.6927 3.68087 76.6882 3.53275 76.6814 3.3864C77.329 2.90626 77.8869 2.30018 78.3276 1.60805Z" fill="#A5A5A5"/>
<path d="M103.346 14.3452C101.489 14.3452 99.7087 13.6077 98.3959 12.295C97.0832 10.9822 96.3457 9.20173 96.3457 7.34522C96.3457 5.4887 97.0832 3.70819 98.3959 2.3954C99.7087 1.0827 101.489 0.345215 103.346 0.345215C105.202 0.345215 106.983 1.0827 108.296 2.3954C109.608 3.70819 110.346 5.4887 110.346 7.34522C110.346 8.57395 110.022 9.78103 109.408 10.8452C108.794 11.9093 107.91 12.793 106.846 13.4073C105.782 14.0217 104.575 14.3451 103.346 14.3451L103.346 14.3452ZM103.346 1.2787C101.737 1.2787 100.194 1.91786 99.0559 3.05556C97.9182 4.19325 97.279 5.73633 97.279 7.34538C97.279 8.95442 97.9182 10.4973 99.0559 11.6352C100.194 12.7729 101.737 13.4121 103.346 13.4121C104.955 13.4121 106.498 12.7729 107.636 11.6352C108.773 10.4975 109.412 8.95442 109.412 7.34538C109.412 5.73633 108.773 4.19341 107.636 3.05556C106.498 1.91786 104.955 1.2787 103.346 1.2787Z" fill="#A5A5A5"/>
<path d="M103.126 7.00004C101.008 6.95317 98.9178 6.50506 96.9663 5.67933L97.3443 4.8254C97.419 4.85811 104.89 8.12483 108.679 3.81738L109.379 4.43343C107.643 6.41205 105.306 7.00007 103.126 7.00007L103.126 7.00004Z" fill="#A5A5A5"/>
<path d="M98.4738 11.5871L97.8672 10.8777C98.1425 10.6397 104.699 5.13294 110.131 8.5677L109.632 9.35633C104.783 6.2905 98.5345 11.5451 98.4739 11.587L98.4738 11.5871Z" fill="#A5A5A5"/>
<path d="M103.495 14.1724L102.772 13.5844C108.162 6.97194 102.8 1.37201 102.566 1.13868L103.234 0.485352C103.294 0.550663 109.412 6.92048 103.495 14.1724L103.495 14.1724Z" fill="#A5A5A5"/>
</svg>
