<svg width="19" height="18" viewBox="0 0 19 18" fill="none" xmlns="http://www.w3.org/2000/svg">
<path fill-rule="evenodd" clip-rule="evenodd" d="M9.26672 0.000378112C9.09023 0.00788536 8.93714 0.124322 8.88281 0.292423L6.89502 6.45325L0.423304 6.44044C0.240186 6.44015 0.0776771 6.55806 0.0211485 6.7322C-0.0353763 6.90633 0.0267423 7.09711 0.174971 7.20455L5.41897 10.9993L3.4054 17.1537L3.40555 17.1535C3.34858 17.3277 3.41041 17.5184 3.55864 17.6262C3.70672 17.7338 3.90735 17.7336 4.0553 17.6257L9.2846 13.8096L14.5158 17.6257V17.6256C14.6637 17.7335 14.8644 17.7336 15.0126 17.626C15.1607 17.5183 15.2225 17.3274 15.1655 17.1534L13.152 10.999L18.396 7.20426L18.3961 7.20441C18.5445 7.09695 18.6066 6.90618 18.5501 6.7319C18.4934 6.55776 18.3311 6.43985 18.1478 6.44029L11.6761 6.4531L9.68605 0.292272C9.62776 0.111803 9.45627 -0.0075733 9.26683 0.000374087L9.26672 0.000378112Z" fill="#FBA724"/>
</svg>
