<svg width="19" height="18" viewBox="0 0 19 18" fill="none" xmlns="http://www.w3.org/2000/svg">
<path d="M15.2324 17.8243C15.3125 17.8179 15.3857 17.7778 15.4339 17.7145C15.4819 17.6511 15.5004 17.5705 15.4843 17.4927L14.1986 11.3223L18.9083 7.07828H18.9081C18.9901 7.00521 19.021 6.89132 18.9868 6.78753C18.9528 6.68375 18.8603 6.60932 18.7503 6.59746L12.4127 5.89449L9.78098 0.161893L9.78118 0.162087C9.73551 0.063356 9.6358 0 9.526 0C9.41619 0 9.31649 0.063356 9.27082 0.162087L6.6391 5.89469L0.301502 6.59765V6.59746C0.191696 6.60931 0.0991842 6.68375 0.0651727 6.78753C0.0311617 6.89131 0.0618688 7.00521 0.143883 7.07828L4.85355 11.3223L3.56792 17.4927H3.56773C3.54479 17.5994 3.58735 17.7096 3.67637 17.774C3.76558 17.8385 3.88471 17.8451 3.98072 17.7913L9.52625 14.6778L15.0718 17.7913C15.1209 17.8179 15.1771 17.8295 15.2329 17.8243H15.2324ZM14.8095 17.0053L9.66348 14.1175C9.57816 14.0698 9.4736 14.0698 9.38828 14.1175L4.24228 17.0053L5.43403 11.2827H5.43383C5.45404 11.1863 5.42081 11.0866 5.34657 11.0209L0.97602 7.0785L6.85738 6.42862C6.95534 6.41851 7.04085 6.35807 7.08224 6.26944L9.52599 0.944326L11.9697 6.26944C12.0111 6.35807 12.0966 6.41832 12.1946 6.42862L18.076 7.0785L13.7054 11.0209C13.6312 11.0866 13.5979 11.1863 13.6181 11.2827L14.8099 17.0053H14.8095Z" fill="#FBA724"/>
</svg>
