<svg width="26" height="26" viewBox="0 0 26 26" fill="none" xmlns="http://www.w3.org/2000/svg">
<path d="M23.8386 0.806519H2.16121C1.80194 0.806519 1.45716 0.949259 1.20317 1.20329C0.949184 1.45733 0.806396 1.80211 0.806396 2.16133V23.8388C0.806396 24.198 0.949137 24.5428 1.20317 24.7968C1.4572 25.0508 1.80198 25.1936 2.16121 25.1936H23.8386C24.1979 25.1936 24.5427 25.0508 24.7967 24.7968C25.0507 24.5428 25.1934 24.198 25.1934 23.8388V2.16133C25.1934 1.80206 25.0507 1.45728 24.7967 1.20329C24.5426 0.949306 24.1979 0.806519 23.8386 0.806519ZM2.16121 1.70974H23.8386C23.9584 1.70974 24.0733 1.75733 24.158 1.842C24.2427 1.92668 24.2902 2.0416 24.2902 2.16136V17.9678H22.0322V13.5845C22.0429 12.6293 21.6848 11.7069 21.0326 11.0093C20.3802 10.3115 19.484 9.89235 18.5304 9.83872C17.3852 9.80304 16.2911 10.3127 15.5816 11.2123C14.8719 12.1119 14.6312 13.2946 14.9324 14.4C15.2649 15.5678 15.4997 16.7611 15.6346 17.9678H10.3654C10.5003 16.7611 10.7352 15.5678 11.0676 14.4C11.3688 13.2946 11.1281 12.1119 10.4184 11.2123C9.70898 10.3127 8.61483 9.80301 7.46965 9.83872C6.516 9.89236 5.61984 10.3115 4.96745 11.0093C4.31522 11.7069 3.95718 12.6293 3.96787 13.5845V17.9678H1.7098V2.16136C1.7098 1.91196 1.91202 1.70974 2.16142 1.70974H2.16121ZM15.804 14.1624C15.5827 13.3477 15.7538 12.4765 16.2665 11.806C16.7792 11.1354 17.5752 10.7421 18.4194 10.7423H18.5038C19.2232 10.7872 19.8974 11.1076 20.3863 11.637C20.8754 12.1665 21.1414 12.864 21.1291 13.5848V20.1123C21.1398 20.7133 20.9182 21.2953 20.5106 21.737C20.1029 22.179 19.5406 22.4465 18.9406 22.484C18.3297 22.5028 17.7374 22.2734 17.2987 21.8478C16.8602 21.4222 16.6128 20.8371 16.613 20.226V19.3742C16.5805 17.6082 16.3084 15.855 15.8041 14.1623L15.804 14.1624ZM9.38702 19.3743V20.2261C9.38923 20.8374 9.14125 21.4229 8.70093 21.8468C8.26524 22.2769 7.67109 22.5075 7.05938 22.4841C6.45938 22.4466 5.89705 22.1791 5.48942 21.7372C5.08176 21.2954 4.8602 20.7134 4.87089 20.1124V13.5849C4.85859 12.8641 5.12472 12.1666 5.61365 11.6371C6.10276 11.1077 6.77716 10.7871 7.49649 10.7424H7.58096C8.42509 10.7424 9.22086 11.1357 9.73358 11.8063C10.2463 12.4768 10.417 13.3478 10.1959 14.1625C9.69164 15.8552 9.41946 17.6085 9.387 19.3744L9.38702 19.3743ZM23.8386 24.2906H2.16121C1.91182 24.2906 1.7096 24.0884 1.7096 23.839V18.8712H3.96766V20.1124C3.95839 20.9477 4.27189 21.7545 4.84265 22.3646C5.41344 22.9747 6.1977 23.341 7.03176 23.3874H7.13076C7.96926 23.3874 8.77329 23.0543 9.36606 22.4614C9.95899 21.8687 10.292 21.0646 10.292 20.2261V19.3743C10.292 19.2081 10.2961 19.04 10.3025 18.8712H15.6992C15.7054 19.0402 15.7097 19.2081 15.7097 19.3743V20.2261C15.7097 21.0646 16.0427 21.8686 16.6356 22.4614C17.2284 23.0543 18.0324 23.3874 18.871 23.3874H18.9699C19.8038 23.3406 20.5875 22.9741 21.1579 22.364C21.7282 21.7539 22.0415 20.9475 22.0322 20.1124V18.8712H24.2903V23.839C24.2903 23.9587 24.2427 24.0737 24.158 24.1583C24.0734 24.243 23.9585 24.2906 23.8387 24.2906H23.8386Z" fill="#DC0505"/>
</svg>
