<svg width="239" height="32" viewBox="0 0 239 32" fill="none" xmlns="http://www.w3.org/2000/svg">
<path d="M230.326 21.1919H216.834V22.9932H220.689V25.6953H224.544L231.29 24.7946L232.254 25.6953L236.108 27.4966H239V29.298H237.072V32C150.655 29.6229 104.08 29.298 30.8382 31.0993L9.63661 32V29.298H12.5277V27.4966H9.63661V25.6953H1.92693V22.9932L-0.000488281 18.4898V15.7878H9.63661L8.6729 13.9864H18.31L21.2011 13.0858H29.8745V11.2844H25.056L22.1648 10.3837L21.2011 9.48306L19.2737 8.58238L21.2011 6.78102H25.056L27.9471 4.97967H31.8019H40.4753V2.27763C109.066 -1.36931 148.909 -0.0675508 219.102 2.2258L220.689 2.27763V4.97967L222.616 6.78102L224.544 4.97967H230.326V8.58238H234.181V11.2844H232.254V16.6885H230.326V21.1919Z" fill="#AE0F0F"/>
<path d="M60.71 11.0059V17.4727C60.71 18.1699 60.5618 18.7943 60.2656 19.3457C59.974 19.8971 59.5319 20.3346 58.9395 20.6582C58.347 20.9772 57.6019 21.1367 56.7041 21.1367C55.4235 21.1367 54.4482 20.8018 53.7783 20.1318C53.113 19.4574 52.7803 18.5618 52.7803 17.4453V11.0059H54.4209V17.3018C54.4209 18.1357 54.6169 18.751 55.0088 19.1475C55.4007 19.5439 55.9863 19.7422 56.7656 19.7422C57.3034 19.7422 57.7409 19.6488 58.0781 19.4619C58.4199 19.2705 58.6706 18.9925 58.8301 18.6279C58.9941 18.2588 59.0762 17.8145 59.0762 17.2949V11.0059H60.71ZM66.1719 11.0059C67.4616 11.0059 68.4027 11.2702 68.9951 11.7988C69.5876 12.3275 69.8838 13.068 69.8838 14.0205C69.8838 14.4535 69.8154 14.8659 69.6787 15.2578C69.5465 15.6452 69.3278 15.9893 69.0225 16.29C68.7171 16.5863 68.3138 16.821 67.8125 16.9941C67.3158 17.1673 66.7028 17.2539 65.9736 17.2539H64.9072V21H63.2666V11.0059H66.1719ZM66.0625 12.3662H64.9072V15.8867H65.8027C66.3177 15.8867 66.7552 15.8275 67.1152 15.709C67.4753 15.5859 67.7487 15.3923 67.9355 15.1279C68.1224 14.8636 68.2158 14.515 68.2158 14.082C68.2158 13.5033 68.0404 13.0726 67.6895 12.79C67.3431 12.5075 66.8008 12.3662 66.0625 12.3662ZM76.1387 12.2568C75.6602 12.2568 75.2318 12.3434 74.8535 12.5166C74.4798 12.6898 74.1631 12.9404 73.9033 13.2686C73.6436 13.5921 73.4453 13.9863 73.3086 14.4512C73.1719 14.9115 73.1035 15.431 73.1035 16.0098C73.1035 16.7845 73.2129 17.4521 73.4316 18.0127C73.6504 18.5687 73.9831 18.9971 74.4297 19.2979C74.8763 19.5941 75.4414 19.7422 76.125 19.7422C76.5488 19.7422 76.9613 19.7012 77.3623 19.6191C77.7633 19.5371 78.1781 19.4255 78.6064 19.2842V20.6787C78.2008 20.8382 77.7907 20.9544 77.376 21.0273C76.9613 21.1003 76.4827 21.1367 75.9404 21.1367C74.9196 21.1367 74.0719 20.9248 73.3975 20.501C72.7275 20.0771 72.2262 19.4801 71.8936 18.71C71.5654 17.9398 71.4014 17.0374 71.4014 16.0029C71.4014 15.2464 71.5062 14.5537 71.7158 13.9248C71.9255 13.2959 72.2308 12.7536 72.6318 12.2979C73.0329 11.8376 73.5273 11.4844 74.1152 11.2383C74.7077 10.9876 75.3844 10.8623 76.1455 10.8623C76.6468 10.8623 77.139 10.9193 77.6221 11.0332C78.1097 11.1426 78.5609 11.2998 78.9756 11.5049L78.4014 12.8584C78.055 12.6943 77.6927 12.5531 77.3145 12.4346C76.9362 12.3161 76.5443 12.2568 76.1387 12.2568ZM89.626 15.9893C89.626 16.7594 89.528 17.4613 89.332 18.0947C89.1406 18.7236 88.8512 19.266 88.4639 19.7217C88.0765 20.1729 87.5911 20.5215 87.0078 20.7676C86.4245 21.0137 85.7409 21.1367 84.957 21.1367C84.1595 21.1367 83.4668 21.0137 82.8789 20.7676C82.2956 20.5215 81.8102 20.1706 81.4229 19.7148C81.04 19.2591 80.7529 18.7145 80.5615 18.0811C80.3701 17.4476 80.2744 16.7458 80.2744 15.9756C80.2744 14.9456 80.443 14.0479 80.7803 13.2822C81.1221 12.512 81.6393 11.915 82.332 11.4912C83.0293 11.0628 83.9089 10.8486 84.9707 10.8486C86.0098 10.8486 86.8734 11.0605 87.5615 11.4844C88.2497 11.9082 88.7646 12.5052 89.1064 13.2754C89.4528 14.041 89.626 14.9456 89.626 15.9893ZM81.9971 15.9893C81.9971 16.7594 82.1019 17.4271 82.3115 17.9922C82.5212 18.5527 82.8424 18.9857 83.2754 19.291C83.7129 19.5918 84.2734 19.7422 84.957 19.7422C85.6452 19.7422 86.2057 19.5918 86.6387 19.291C87.0716 18.9857 87.3906 18.5527 87.5957 17.9922C87.8008 17.4271 87.9033 16.7594 87.9033 15.9893C87.9033 14.818 87.6686 13.902 87.1992 13.2412C86.7344 12.5758 85.9915 12.2432 84.9707 12.2432C84.2871 12.2432 83.7243 12.3936 83.2822 12.6943C82.8447 12.9951 82.5212 13.4258 82.3115 13.9863C82.1019 14.5423 81.9971 15.21 81.9971 15.9893ZM96.0859 21L93.208 12.6533H93.1465C93.1602 12.8402 93.1761 13.0954 93.1943 13.4189C93.2126 13.7425 93.2285 14.0889 93.2422 14.458C93.2559 14.8271 93.2627 15.1803 93.2627 15.5176V21H91.7725V11.0059H94.0762L96.8447 18.9834H96.8857L99.75 11.0059H102.047V21H100.481V15.4355C100.481 15.1302 100.486 14.7998 100.495 14.4443C100.509 14.0889 100.522 13.7516 100.536 13.4326C100.554 13.1136 100.568 12.8584 100.577 12.667H100.522L97.5352 21H96.0859ZM108.992 21L106.114 12.6533H106.053C106.066 12.8402 106.082 13.0954 106.101 13.4189C106.119 13.7425 106.135 14.0889 106.148 14.458C106.162 14.8271 106.169 15.1803 106.169 15.5176V21H104.679V11.0059H106.982L109.751 18.9834H109.792L112.656 11.0059H114.953V21H113.388V15.4355C113.388 15.1302 113.392 14.7998 113.401 14.4443C113.415 14.0889 113.429 13.7516 113.442 13.4326C113.461 13.1136 113.474 12.8584 113.483 12.667H113.429L110.441 21H108.992ZM117.585 21V11.0059H119.226V21H117.585ZM130.204 21H128.188L123.293 13.0225H123.231C123.25 13.2913 123.266 13.5762 123.279 13.877C123.298 14.1777 123.311 14.4876 123.32 14.8066C123.334 15.1257 123.345 15.4492 123.354 15.7773V21H121.864V11.0059H123.867L128.755 18.9287H128.803C128.794 18.6963 128.782 18.4297 128.769 18.1289C128.755 17.8281 128.741 17.5182 128.728 17.1992C128.718 16.8757 128.712 16.5635 128.707 16.2627V11.0059H130.204V21ZM136.862 15.5723H140.595V20.5898C140.071 20.763 139.528 20.8975 138.968 20.9932C138.407 21.0889 137.778 21.1367 137.081 21.1367C136.065 21.1367 135.203 20.9362 134.497 20.5352C133.795 20.1296 133.262 19.5439 132.897 18.7783C132.533 18.0081 132.351 17.0807 132.351 15.9961C132.351 14.9525 132.553 14.0479 132.959 13.2822C133.365 12.512 133.955 11.9173 134.729 11.498C135.504 11.0742 136.443 10.8623 137.546 10.8623C138.088 10.8623 138.612 10.917 139.118 11.0264C139.629 11.1312 140.096 11.277 140.52 11.4639L139.945 12.8174C139.608 12.6579 139.23 12.5234 138.811 12.4141C138.391 12.3047 137.956 12.25 137.505 12.25C136.789 12.25 136.172 12.4049 135.652 12.7148C135.137 13.0247 134.741 13.4622 134.463 14.0273C134.185 14.5879 134.046 15.251 134.046 16.0166C134.046 16.7594 134.158 17.4111 134.381 17.9717C134.604 18.5322 134.953 18.9697 135.427 19.2842C135.905 19.5941 136.523 19.749 137.279 19.749C137.658 19.749 137.979 19.7285 138.243 19.6875C138.507 19.6465 138.751 19.6009 138.975 19.5508V16.9736H136.862V15.5723ZM150.883 12.2568C150.404 12.2568 149.976 12.3434 149.598 12.5166C149.224 12.6898 148.907 12.9404 148.647 13.2686C148.388 13.5921 148.189 13.9863 148.053 14.4512C147.916 14.9115 147.848 15.431 147.848 16.0098C147.848 16.7845 147.957 17.4521 148.176 18.0127C148.395 18.5687 148.727 18.9971 149.174 19.2979C149.62 19.5941 150.186 19.7422 150.869 19.7422C151.293 19.7422 151.705 19.7012 152.106 19.6191C152.507 19.5371 152.922 19.4255 153.351 19.2842V20.6787C152.945 20.8382 152.535 20.9544 152.12 21.0273C151.705 21.1003 151.227 21.1367 150.685 21.1367C149.664 21.1367 148.816 20.9248 148.142 20.501C147.472 20.0771 146.97 19.4801 146.638 18.71C146.31 17.9398 146.146 17.0374 146.146 16.0029C146.146 15.2464 146.25 14.5537 146.46 13.9248C146.67 13.2959 146.975 12.7536 147.376 12.2979C147.777 11.8376 148.271 11.4844 148.859 11.2383C149.452 10.9876 150.129 10.8623 150.89 10.8623C151.391 10.8623 151.883 10.9193 152.366 11.0332C152.854 11.1426 153.305 11.2998 153.72 11.5049L153.146 12.8584C152.799 12.6943 152.437 12.5531 152.059 12.4346C151.68 12.3161 151.288 12.2568 150.883 12.2568ZM155.497 21V11.0059H157.138V19.6055H161.383V21H155.497ZM169.306 21L168.328 18.2246H164.507L163.529 21H161.8L165.519 10.9648H167.337L171.049 21H169.306ZM167.904 16.8164L166.954 14.082C166.918 13.9635 166.865 13.7972 166.797 13.583C166.729 13.3643 166.66 13.1432 166.592 12.9199C166.523 12.6921 166.466 12.5007 166.421 12.3457C166.375 12.5326 166.318 12.7422 166.25 12.9746C166.186 13.2025 166.122 13.4167 166.059 13.6172C165.999 13.8177 165.954 13.9727 165.922 14.082L164.965 16.8164H167.904ZM178.138 18.2793C178.138 18.8717 177.992 19.3822 177.7 19.8105C177.413 20.2389 176.998 20.5671 176.456 20.7949C175.918 21.0228 175.276 21.1367 174.528 21.1367C174.164 21.1367 173.815 21.1162 173.482 21.0752C173.15 21.0342 172.835 20.9749 172.539 20.8975C172.247 20.8154 171.981 20.7174 171.739 20.6035V19.0586C172.145 19.2363 172.598 19.3981 173.1 19.5439C173.601 19.6852 174.111 19.7559 174.631 19.7559C175.055 19.7559 175.406 19.7012 175.684 19.5918C175.966 19.4779 176.176 19.3184 176.312 19.1133C176.449 18.9036 176.518 18.6598 176.518 18.3818C176.518 18.0856 176.438 17.835 176.278 17.6299C176.119 17.4248 175.877 17.238 175.554 17.0693C175.235 16.8962 174.834 16.7116 174.351 16.5156C174.022 16.3835 173.708 16.2331 173.407 16.0645C173.111 15.8958 172.847 15.6976 172.614 15.4697C172.382 15.2419 172.197 14.973 172.061 14.6631C171.928 14.3486 171.862 13.9795 171.862 13.5557C171.862 12.9906 171.997 12.5075 172.266 12.1064C172.539 11.7054 172.922 11.3978 173.414 11.1836C173.911 10.9694 174.49 10.8623 175.15 10.8623C175.674 10.8623 176.167 10.917 176.627 11.0264C177.092 11.1357 177.548 11.2907 177.994 11.4912L177.475 12.8105C177.064 12.6419 176.666 12.5075 176.278 12.4072C175.896 12.307 175.504 12.2568 175.103 12.2568C174.756 12.2568 174.462 12.3092 174.221 12.4141C173.979 12.5189 173.795 12.667 173.667 12.8584C173.544 13.0452 173.482 13.2686 173.482 13.5283C173.482 13.82 173.553 14.0661 173.694 14.2666C173.84 14.4626 174.063 14.6426 174.364 14.8066C174.67 14.9707 175.062 15.153 175.54 15.3535C176.091 15.5814 176.559 15.8206 176.941 16.0713C177.329 16.3219 177.625 16.6227 177.83 16.9736C178.035 17.32 178.138 17.7552 178.138 18.2793ZM185.835 18.2793C185.835 18.8717 185.689 19.3822 185.397 19.8105C185.11 20.2389 184.696 20.5671 184.153 20.7949C183.616 21.0228 182.973 21.1367 182.226 21.1367C181.861 21.1367 181.512 21.1162 181.18 21.0752C180.847 21.0342 180.533 20.9749 180.236 20.8975C179.945 20.8154 179.678 20.7174 179.437 20.6035V19.0586C179.842 19.2363 180.296 19.3981 180.797 19.5439C181.298 19.6852 181.809 19.7559 182.328 19.7559C182.752 19.7559 183.103 19.7012 183.381 19.5918C183.663 19.4779 183.873 19.3184 184.01 19.1133C184.146 18.9036 184.215 18.6598 184.215 18.3818C184.215 18.0856 184.135 17.835 183.976 17.6299C183.816 17.4248 183.575 17.238 183.251 17.0693C182.932 16.8962 182.531 16.7116 182.048 16.5156C181.72 16.3835 181.405 16.2331 181.104 16.0645C180.808 15.8958 180.544 15.6976 180.312 15.4697C180.079 15.2419 179.895 14.973 179.758 14.6631C179.626 14.3486 179.56 13.9795 179.56 13.5557C179.56 12.9906 179.694 12.5075 179.963 12.1064C180.236 11.7054 180.619 11.3978 181.111 11.1836C181.608 10.9694 182.187 10.8623 182.848 10.8623C183.372 10.8623 183.864 10.917 184.324 11.0264C184.789 11.1357 185.245 11.2907 185.691 11.4912L185.172 12.8105C184.762 12.6419 184.363 12.5075 183.976 12.4072C183.593 12.307 183.201 12.2568 182.8 12.2568C182.453 12.2568 182.16 12.3092 181.918 12.4141C181.676 12.5189 181.492 12.667 181.364 12.8584C181.241 13.0452 181.18 13.2686 181.18 13.5283C181.18 13.82 181.25 14.0661 181.392 14.2666C181.537 14.4626 181.761 14.6426 182.062 14.8066C182.367 14.9707 182.759 15.153 183.237 15.3535C183.789 15.5814 184.256 15.8206 184.639 16.0713C185.026 16.3219 185.322 16.6227 185.527 16.9736C185.732 17.32 185.835 17.7552 185.835 18.2793Z" fill="white"/>
</svg>
