<svg width="305" height="377" viewBox="0 0 305 377" fill="none" xmlns="http://www.w3.org/2000/svg">
<path d="M128.361 53.4052C122.208 42.4711 114.118 32.7474 104.485 24.7115L86.1276 71.4958L103.945 104.345C105.669 107.526 104.578 111.501 101.471 113.357C74.5586 129.458 53.7428 154.03 42.2885 183.222C30.8341 212.413 29.3842 244.586 38.1662 274.691C39.1824 278.165 37.2787 281.82 33.8516 282.981L-1.55101 294.947L-19.9084 341.732C-7.3803 342.391 5.16487 340.761 17.111 336.929L48.9485 326.671C43.2923 318.936 38.3616 310.695 34.22 302.053L46.396 296.226L46.3988 296.227C61.8803 328.587 89.0683 353.864 122.466 366.952C140.005 373.915 158.767 377.272 177.632 376.819C196.497 376.368 215.079 372.116 232.264 364.321L304.73 179.641C297.431 162.24 286.699 146.485 273.175 133.326C259.652 120.163 243.613 109.866 226.02 103.043C203.84 94.3368 179.828 91.3597 156.193 94.38C153.461 94.7355 150.789 93.3927 149.441 90.9892L128.361 53.4052ZM132.327 341.821L127.396 354.388C103.416 345.017 82.8337 328.602 68.3621 307.305L79.5206 299.707L79.5234 299.708C92.4654 318.757 110.876 333.439 132.327 341.821L132.327 341.821ZM74.0448 290.825L62.2447 297.385C59.8261 293.031 57.6588 288.539 55.7563 283.934L68.2375 278.78C69.94 282.905 71.878 286.926 74.0448 290.825ZM230.797 257.19C224.258 273.856 211.367 287.239 194.958 294.399C178.55 301.56 159.971 301.909 143.305 295.37C126.64 288.831 113.256 275.94 106.096 259.531C98.9353 243.123 98.5856 224.544 105.125 207.878C111.664 191.213 124.555 177.829 140.964 170.669C157.372 163.509 175.951 163.159 192.617 169.698C209.269 176.255 222.639 189.147 229.799 205.549C236.955 221.952 237.315 240.523 230.797 257.19ZM93.1868 16.5484L76.9185 58.0085C63.8423 43.6585 44.2798 37.0765 25.1877 40.6073C6.09662 44.1354 -9.82022 57.2763 -16.9006 75.3545L-74.4654 222.06C-81.5684 240.129 -78.8358 260.588 -67.2384 276.158C-55.6421 291.73 -36.8236 300.208 -17.4778 298.58L-33.7461 340.04C-63.7322 334.302 -89.6093 315.508 -104.344 288.767C-119.082 262.027 -121.147 230.115 -109.982 201.697L-56.7879 66.1291C-45.6468 37.7028 -22.4312 15.7108 6.55871 6.12752C35.5452 -3.45542 67.295 0.362746 93.1862 16.5499L93.1868 16.5484ZM187.686 182.266C201.018 187.497 211.726 197.81 217.452 210.937C223.182 224.062 223.461 238.926 218.23 252.259C212.998 265.592 202.685 276.3 189.558 282.026C176.434 287.755 161.569 288.034 148.236 282.803C134.904 277.571 124.196 267.258 118.47 254.131C112.74 241.007 112.461 226.142 117.692 212.81C122.936 199.487 133.251 188.79 146.374 183.066C159.494 177.338 174.352 177.05 187.686 182.266Z" fill="#F7F5F5"/>
</svg>
